<svg width="25" height="33" viewBox="0 0 25 33" fill="none" xmlns="http://www.w3.org/2000/svg">
<path fill-rule="evenodd" clip-rule="evenodd" d="M12.375 9.28125C10.6662 9.28125 9.28125 10.6662 9.28125 12.375C9.28125 14.0838 10.6662 15.4687 12.375 15.4687C14.0838 15.4687 15.4687 14.0838 15.4687 12.375C15.4687 10.6662 14.0838 9.28125 12.375 9.28125ZM12.375 17.5312C9.52772 17.5312 7.21875 15.2233 7.21875 12.375C7.21875 9.52668 9.52772 7.21875 12.375 7.21875C15.2223 7.21875 17.5312 9.52668 17.5312 12.375C17.5312 15.2233 15.2223 17.5312 12.375 17.5312ZM12.375 0C5.5409 0 0 5.5409 0 12.375C0 17.5498 10.3177 33.0113 12.375 33C14.4004 33.0113 24.75 17.4797 24.75 12.375C24.75 5.5409 19.2091 0 12.375 0Z" fill="#676B73"/>
</svg>
