<svg width="30" height="28" viewBox="0 0 30 28" fill="none" xmlns="http://www.w3.org/2000/svg">
<g clip-path="url(#clip0_13_227)">
<path fill-rule="evenodd" clip-rule="evenodd" d="M13.5577 3.50763C12.7214 2.18988 10.8913 1.69932 9.44841 2.49892L7.30175 3.65057C5.71843 4.49912 5.18158 6.4018 6.08607 7.86942L6.08671 7.87046C6.55331 8.62514 6.48007 9.10723 6.33443 9.34417C6.18871 9.58124 5.78069 9.88168 4.85332 9.88168C3.02799 9.88168 1.55554 11.2798 1.55554 12.9733V15.0267C1.55554 16.7203 3.02799 18.1183 4.85332 18.1183C5.78069 18.1183 6.18871 18.4187 6.33443 18.6558C6.48007 18.8928 6.55331 19.3748 6.08671 20.1295L6.08607 20.1306C5.18158 21.5983 5.71893 23.5012 7.30226 24.3497L9.44852 25.5011C10.8914 26.3006 12.7214 25.8102 13.5577 24.4924L13.7002 24.2618C14.1669 23.507 14.6508 23.3246 14.9441 23.3246C15.2362 23.3246 15.7164 23.5055 16.1769 24.2585L16.1789 24.2618L16.3158 24.4834L16.3214 24.4924C17.1576 25.8102 18.9877 26.3006 20.4305 25.5011L22.5773 24.3495C24.1617 23.5003 24.6952 21.6108 23.7953 20.1342L23.7924 20.1295C23.3257 19.3748 23.399 18.8928 23.5446 18.6558C23.6904 18.4187 24.0984 18.1183 25.0258 18.1183C26.8511 18.1183 28.3235 16.7203 28.3235 15.0267V12.9733C28.3235 11.2621 26.8322 9.88168 25.0258 9.88168C24.0984 9.88168 23.6904 9.58124 23.5446 9.34417C23.399 9.10723 23.3257 8.62514 23.7924 7.87046L23.793 7.86942C24.6976 6.40165 24.1605 4.49871 22.5768 3.6503L20.4307 2.49892C18.9878 1.69932 17.1576 2.18983 16.3214 3.50759L16.1789 3.73827C15.7122 4.49301 15.2283 4.67543 14.9348 4.67543C14.6429 4.67543 14.1626 4.49455 13.7022 3.74151L13.7002 3.73827L13.5633 3.51658L13.5577 3.50763ZM18.6667 14C18.6667 15.933 16.9952 17.5 14.9333 17.5C12.8714 17.5 11.2 15.933 11.2 14C11.2 12.0669 12.8714 10.5 14.9333 10.5C16.9952 10.5 18.6667 12.0669 18.6667 14Z" fill="#676B73"/>
</g>
<defs>
<clipPath id="clip0_13_227">
<rect width="29.8667" height="28" fill="white"/>
</clipPath>
</defs>
</svg>
