<svg width="179" height="163" viewBox="0 0 179 163" fill="none" xmlns="http://www.w3.org/2000/svg">
<path d="M155.92 57.0936C155.062 55.6259 155.615 53.7971 156.996 52.9897L163.471 49.2052C164.939 48.3474 166.767 48.8993 167.575 50.2815C168.432 51.7483 167.88 53.578 166.499 54.3854L160.024 58.1699C158.642 58.9772 156.777 58.5604 155.92 57.0936ZM133.935 37.5116C132.415 36.8938 131.665 35.0157 132.42 33.5323L135.379 26.705C135.997 25.1857 137.875 24.4364 139.359 25.1909C140.878 25.8078 141.628 27.6859 140.874 29.1702L137.913 35.9957C137.296 37.5151 135.504 38.2148 133.935 37.5116ZM104.922 35.7765C103.309 36.0728 101.665 34.894 101.503 33.2374L100.325 25.8909C100.028 24.2772 101.208 22.6347 102.864 22.4718C104.477 22.1754 106.119 23.3547 106.282 25.0108L107.46 32.3573C107.758 33.9705 106.624 35.524 104.922 35.7765ZM79.2746 49.4203C78.1456 50.6593 76.2237 50.7401 75.0351 49.6974L69.4668 44.7282C68.2277 43.5991 68.1464 41.6764 69.1891 40.4878C70.3182 39.2488 72.2406 39.1688 73.4291 40.2116L78.997 45.1799C80.3229 46.2594 80.4037 48.1812 79.2746 49.4203ZM67.4564 76.3658C67.249 77.9927 65.76 79.2105 64.183 79.0886L56.7832 78.3183C55.1562 78.1109 53.938 76.621 54.0595 75.0454C54.2669 73.4185 55.7559 72.2007 57.3319 72.3209L64.7327 73.0929C66.446 73.2498 67.6638 74.7388 67.4564 76.3658ZM73.7287 105.132C74.586 106.598 74.0338 108.428 72.6524 109.235L66.1773 113.02C64.7096 113.878 62.8808 113.325 62.0734 111.944C61.2156 110.476 61.7683 108.647 63.1497 107.84L69.6248 104.055C71.0925 103.197 72.8709 103.664 73.7287 105.132ZM95.714 124.714C97.2333 125.331 97.9835 127.209 97.2284 128.692L94.2691 135.519C93.6513 137.039 91.7732 137.789 90.2893 137.033C88.7704 136.416 88.0202 134.538 88.7743 133.054L91.7347 126.229C92.3524 124.709 94.1442 124.009 95.714 124.714ZM124.991 127.64C126.625 127.264 128.26 128.278 128.549 129.962L130.146 137.252C130.522 138.886 129.508 140.52 127.824 140.81C126.19 141.186 124.555 140.172 124.266 138.488L122.669 131.197C122.294 129.564 123.358 128.016 124.991 127.64ZM150.374 112.805C151.503 111.566 153.424 111.484 154.613 112.527L160.182 117.497C161.42 118.625 161.502 120.548 160.459 121.736C159.33 122.975 157.408 123.055 156.219 122.013L150.651 117.044C149.412 115.915 149.245 114.044 150.374 112.805ZM162.192 85.8594C162.399 84.2315 163.888 83.0138 165.465 83.1357L172.865 83.906C174.492 84.1134 175.71 85.6032 175.589 87.1788C175.381 88.8058 173.893 90.0244 172.316 89.9034L164.915 89.1314C163.288 88.924 161.985 87.4863 162.192 85.8594Z" fill="#ECA914"/>
<path d="M77.7 81.1549C77.691 101.645 94.295 118.263 114.784 118.272C135.274 118.281 151.891 101.678 151.9 81.1879V81.1549C151.903 60.6649 135.296 44.0529 114.806 44.0499C94.316 44.0459 77.703 60.6529 77.7 81.1429V81.1549Z" fill="#ECA914"/>
<path d="M152.7 127.056C152.7 108.656 136.9 93.6559 117.5 93.6559C98.1 93.6559 82.3 108.556 82.3 127.056V160.456H117.9C137.1 160.156 152.7 145.356 152.7 127.056Z" fill="#EAEAEA" fill-opacity="0.39"/>
<path d="M130.5 125.455C130.5 114.854 125.7 105.354 118.2 98.8539C118.301 97.8539 118.4 96.8539 118.4 95.8539C118.4 76.5549 102.601 60.8549 83.2 60.8549C63.8 60.8549 48 76.5549 48 95.8539C48 96.1549 48 96.5549 48.101 96.8539C43.7 94.6549 38.7 93.4549 33.5 93.4549C15 93.4549 0 108.455 0 126.955C0 145.055 14.4 159.755 32.4 160.354V160.455H97V160.354C115.5 159.555 130.5 144.255 130.5 125.455Z" fill="#F7F7F7" fill-opacity="0.48"/>
</svg>
