<svg width="119" height="40" viewBox="0 0 119 40" fill="none" xmlns="http://www.w3.org/2000/svg">
<rect width="119" height="40" rx="20" fill="#742BEC"/>
<path fill-rule="evenodd" clip-rule="evenodd" d="M20.5 15.625C19.4644 15.625 18.625 16.4644 18.625 17.5C18.625 18.5356 19.4644 19.375 20.5 19.375C21.5356 19.375 22.375 18.5356 22.375 17.5C22.375 16.4644 21.5356 15.625 20.5 15.625ZM20.5 20.625C18.7744 20.625 17.375 19.2262 17.375 17.5C17.375 15.7737 18.7744 14.375 20.5 14.375C22.2256 14.375 23.625 15.7737 23.625 17.5C23.625 19.2262 22.2256 20.625 20.5 20.625ZM20.5 10C16.3581 10 13 13.3581 13 17.5C13 20.6362 19.2531 30.0069 20.5 30C21.7275 30.0069 28 20.5937 28 17.5C28 13.3581 24.6419 10 20.5 10Z" fill="white"/>
<path d="M43.8182 13.8636V25.5H42.4091V13.8636H43.8182ZM47.8026 20.25V25.5H46.4616V16.7727H47.7571V18.1364H47.8707C48.0753 17.6932 48.3859 17.3371 48.8026 17.0682C49.2192 16.7955 49.7571 16.6591 50.4162 16.6591C51.0071 16.6591 51.5241 16.7803 51.9673 17.0227C52.4105 17.2614 52.7552 17.625 53.0014 18.1136C53.2476 18.5985 53.3707 19.2121 53.3707 19.9545V25.5H52.0298V20.0455C52.0298 19.3598 51.8518 18.8258 51.4957 18.4432C51.1397 18.0568 50.651 17.8636 50.0298 17.8636C49.6018 17.8636 49.2192 17.9564 48.8821 18.142C48.5488 18.3277 48.2855 18.5985 48.0923 18.9545C47.8991 19.3106 47.8026 19.7424 47.8026 20.25ZM59.1165 25.6818C58.3892 25.6818 57.7472 25.4981 57.1903 25.1307C56.6335 24.7595 56.1979 24.2367 55.8835 23.5625C55.5691 22.8845 55.4119 22.0833 55.4119 21.1591C55.4119 20.2424 55.5691 19.447 55.8835 18.7727C56.1979 18.0985 56.6354 17.5777 57.196 17.2102C57.7566 16.8428 58.4044 16.6591 59.1392 16.6591C59.7074 16.6591 60.1563 16.7538 60.4858 16.9432C60.8191 17.1288 61.0729 17.3409 61.2472 17.5795C61.4252 17.8144 61.5634 18.0076 61.6619 18.1591H61.7756V13.8636H63.1165V25.5H61.821V24.1591H61.6619C61.5634 24.3182 61.4233 24.5189 61.2415 24.7614C61.0597 25 60.8002 25.214 60.4631 25.4034C60.1259 25.589 59.6771 25.6818 59.1165 25.6818ZM59.2983 24.4773C59.8362 24.4773 60.2907 24.3371 60.6619 24.0568C61.0331 23.7727 61.3153 23.3807 61.5085 22.8807C61.7017 22.3769 61.7983 21.7955 61.7983 21.1364C61.7983 20.4848 61.7036 19.9148 61.5142 19.4261C61.3248 18.9337 61.0445 18.5511 60.6733 18.2784C60.3021 18.0019 59.8438 17.8636 59.2983 17.8636C58.7301 17.8636 58.2566 18.0095 57.8778 18.3011C57.5028 18.589 57.2206 18.9811 57.0312 19.4773C56.8456 19.9697 56.7528 20.5227 56.7528 21.1364C56.7528 21.7576 56.8475 22.322 57.0369 22.8295C57.2301 23.3333 57.5142 23.7348 57.8892 24.0341C58.268 24.3295 58.7377 24.4773 59.2983 24.4773ZM65.7585 25.5V16.7727H67.0994V25.5H65.7585ZM66.4403 15.3182C66.179 15.3182 65.9536 15.2292 65.7642 15.0511C65.5786 14.8731 65.4858 14.6591 65.4858 14.4091C65.4858 14.1591 65.5786 13.9451 65.7642 13.767C65.9536 13.589 66.179 13.5 66.4403 13.5C66.7017 13.5 66.9252 13.589 67.1108 13.767C67.3002 13.9451 67.3949 14.1591 67.3949 14.4091C67.3949 14.6591 67.3002 14.8731 67.1108 15.0511C66.9252 15.2292 66.7017 15.3182 66.4403 15.3182ZM72.1236 25.7045C71.5705 25.7045 71.0687 25.6004 70.6179 25.392C70.1671 25.1799 69.8092 24.875 69.544 24.4773C69.2789 24.0758 69.1463 23.5909 69.1463 23.0227C69.1463 22.5227 69.2448 22.1174 69.4418 21.8068C69.6387 21.4924 69.902 21.2462 70.2315 21.0682C70.5611 20.8902 70.9247 20.7576 71.3224 20.6705C71.724 20.5795 72.1274 20.5076 72.5327 20.4545C73.063 20.3864 73.4929 20.3352 73.8224 20.3011C74.1558 20.2633 74.3982 20.2008 74.5497 20.1136C74.705 20.0265 74.7827 19.875 74.7827 19.6591V19.6136C74.7827 19.053 74.6293 18.6174 74.3224 18.3068C74.0194 17.9962 73.5592 17.8409 72.9418 17.8409C72.3016 17.8409 71.7997 17.9811 71.4361 18.2614C71.0724 18.5417 70.8168 18.8409 70.669 19.1591L69.3963 18.7045C69.6236 18.1742 69.9266 17.7614 70.3054 17.4659C70.688 17.1667 71.1046 16.9583 71.5554 16.8409C72.0099 16.7197 72.4569 16.6591 72.8963 16.6591C73.1766 16.6591 73.4986 16.6932 73.8622 16.7614C74.2296 16.8258 74.5838 16.9602 74.9247 17.1648C75.2694 17.3693 75.5554 17.678 75.7827 18.0909C76.0099 18.5038 76.1236 19.0568 76.1236 19.75V25.5H74.7827V24.3182H74.7145C74.6236 24.5076 74.4721 24.7102 74.2599 24.9261C74.0478 25.142 73.7656 25.3258 73.4134 25.4773C73.0611 25.6288 72.6312 25.7045 72.1236 25.7045ZM72.3281 24.5C72.8584 24.5 73.3054 24.3958 73.669 24.1875C74.0365 23.9792 74.313 23.7102 74.4986 23.3807C74.688 23.0511 74.7827 22.7045 74.7827 22.3409V21.1136C74.7259 21.1818 74.6009 21.2443 74.4077 21.3011C74.2183 21.3542 73.9986 21.4015 73.7486 21.4432C73.5024 21.4811 73.2618 21.5152 73.027 21.5455C72.7959 21.572 72.6084 21.5947 72.4645 21.6136C72.116 21.6591 71.7902 21.733 71.4872 21.8352C71.188 21.9337 70.9455 22.0833 70.7599 22.2841C70.5781 22.4811 70.4872 22.75 70.4872 23.0909C70.4872 23.5568 70.6596 23.9091 71.0043 24.1477C71.3527 24.3826 71.794 24.5 72.3281 24.5Z" fill="white"/>
</svg>
