<svg width="25" height="25" viewBox="0 0 25 25" fill="none" xmlns="http://www.w3.org/2000/svg">
<path d="M0 23.6111V1.38889C0 1.02053 0.146329 0.667263 0.406796 0.406796C0.667263 0.146329 1.02053 0 1.38889 0H11.1111V25H1.38889C1.02053 25 0.667263 24.8537 0.406796 24.5932C0.146329 24.3327 0 23.9795 0 23.6111ZM25 23.6111V13.8889H13.8889V25H23.6111C23.9795 25 24.3327 24.8537 24.5932 24.5932C24.8537 24.3327 25 23.9795 25 23.6111ZM25 1.38889C25 1.02053 24.8537 0.667263 24.5932 0.406796C24.3327 0.146329 23.9795 0 23.6111 0H13.8889V11.1111H25V1.38889Z" fill="#676B73"/>
</svg>
